 <svg version="1.0" xmlns="http://www.w3.org/2000/svg" width="700.000000pt" height="700.000000pt" viewBox="0 0 700.000000 700.000000" preserveAspectRatio="xMidYMid meet">
<metadata>
Created by potrace 1.12, written by Peter Selinger 2001-2015
</metadata>
<g transform="translate(0.000000,700.000000) scale(0.100000,-0.100000)" fill="#000000" stroke="none">
<path d="M0 3500 l0 -3500 3500 0 3500 0 0 3500 0 3500 -3500 0 -3500 0 0
-3500z m1772 1808 c30 -15 51 -67 44 -110 -13 -80 -61 -152 -194 -290 -70 -73
-143 -155 -162 -183 -18 -27 -53 -72 -77 -100 -29 -33 -55 -81 -78 -140 -20
-50 -57 -124 -83 -165 -63 -98 -77 -135 -96 -255 -46 -297 -57 -467 -46 -690
13 -237 24 -333 56 -510 26 -143 39 -181 98 -272 18 -29 46 -87 61 -130 33
-96 55 -132 122 -205 29 -31 63 -79 77 -107 14 -27 50 -71 81 -98 30 -26 73
-73 95 -104 21 -31 60 -73 86 -94 55 -45 78 -94 69 -143 -15 -79 -61 -112
-158 -112 -111 0 -146 19 -266 142 -58 60 -122 133 -142 163 -19 30 -57 77
-83 105 -27 28 -62 82 -80 123 -19 40 -51 95 -73 122 -59 75 -89 132 -113 215
-11 41 -28 100 -36 130 -9 30 -35 98 -59 150 -68 152 -95 376 -95 805 0 325
33 542 104 683 19 38 53 122 75 186 48 139 49 140 105 206 24 28 59 79 76 112
18 34 63 95 99 137 37 42 92 112 124 156 31 44 74 93 96 109 22 16 60 53 86
82 25 30 60 61 77 70 60 31 163 37 210 12z m3667 -4 c25 -10 54 -34 76 -62 19
-26 60 -65 91 -87 30 -22 72 -65 92 -95 20 -30 66 -86 102 -125 36 -38 88
-108 114 -155 27 -47 70 -109 97 -137 49 -54 56 -71 107 -233 17 -52 48 -126
71 -165 78 -136 95 -265 95 -760 1 -493 -16 -617 -114 -825 -27 -58 -58 -143
-70 -189 -25 -98 -54 -160 -105 -221 -20 -24 -56 -83 -80 -130 -24 -47 -58
-98 -75 -115 -18 -16 -56 -61 -85 -100 -71 -93 -242 -268 -283 -289 -42 -21
-147 -23 -195 -2 -44 18 -77 68 -77 117 0 36 35 96 75 129 10 8 37 41 60 72
23 32 64 75 91 97 27 21 65 65 83 98 19 32 58 83 87 113 59 64 71 85 124 220
21 55 54 126 73 157 56 94 71 152 112 443 32 229 49 464 40 570 -8 115 -71
513 -90 576 -8 28 -39 89 -69 135 -30 46 -69 123 -86 170 -24 66 -45 102 -94
162 -36 42 -81 101 -102 129 -20 29 -79 94 -129 143 -168 166 -218 317 -117
359 49 20 132 20 181 0z m-1980 -303 c61 -32 187 -157 245 -245 29 -44 64 -90
76 -101 38 -34 75 -96 110 -185 18 -47 53 -122 78 -167 24 -46 50 -107 58
-135 22 -77 29 -315 14 -418 -7 -47 -15 -100 -17 -118 -10 -67 37 -122 106
-122 19 0 54 16 95 45 36 24 77 47 91 51 38 10 86 -47 125 -148 17 -46 54
-128 81 -183 67 -134 83 -226 76 -430 -7 -191 -19 -246 -82 -369 -29 -56 -64
-133 -79 -172 -30 -79 -56 -108 -162 -177 -81 -55 -128 -62 -145 -24 -11 25
-2 52 41 127 16 28 20 53 20 123 0 161 -19 178 -228 202 -144 17 -210 36 -240
68 -29 31 -110 204 -117 252 -9 52 11 316 31 425 22 116 16 259 -12 297 -38
50 -71 44 -157 -31 -83 -72 -103 -100 -141 -195 -14 -35 -48 -94 -74 -130 -58
-80 -72 -104 -117 -206 -20 -43 -54 -103 -76 -133 -57 -75 -82 -136 -125 -302
-39 -151 -42 -189 -31 -451 1 -44 -2 -62 -17 -78 -35 -38 -82 -24 -201 62 -73
52 -96 86 -129 185 -14 42 -42 103 -61 135 -70 116 -79 160 -80 367 0 207 8
248 71 350 18 30 49 99 69 153 44 123 45 124 104 191 26 31 63 84 81 118 42
79 83 141 132 197 21 25 57 83 79 130 23 47 58 109 80 136 47 63 78 132 113
254 15 51 46 132 70 180 51 102 62 145 72 271 8 111 25 160 66 195 36 30 57
31 107 6z"></path>
</g>
</svg>