 <svg version="1.0" xmlns="http://www.w3.org/2000/svg" width="700.000000pt" height="688.000000pt" viewBox="0 0 700.000000 688.000000" preserveAspectRatio="xMidYMid meet">
<metadata>
Created by potrace 1.12, written by Peter Selinger 2001-2015
</metadata>
<g transform="translate(0.000000,688.000000) scale(0.100000,-0.100000)" fill="#000000" stroke="none">
<path d="M968 6743 c-2 -5 -2 -44 1 -88 5 -68 9 -80 25 -83 15 -3 17 0 10 14
-4 11 -10 52 -12 92 -3 63 -13 89 -24 65z"></path>
<path d="M1785 6738 c-3 -8 -5 -48 -3 -89 l3 -74 32 -3 c35 -4 73 25 73 56 0
27 -27 60 -52 64 -13 2 -24 11 -26 23 -5 29 -20 41 -27 23z m65 -87 c13 -26 3
-51 -21 -51 -14 0 -19 7 -19 28 0 45 21 57 40 23z"></path>
<path d="M1348 6718 c-2 -14 -13 -24 -32 -29 -77 -21 -54 -125 26 -117 l33 3
3 83 c2 67 0 82 -12 82 -8 0 -16 -10 -18 -22z m2 -90 c0 -25 -4 -29 -22 -26
-26 3 -35 32 -18 53 18 21 40 6 40 -27z"></path>
<path d="M110 6700 c-24 -19 -24 -21 3 -24 7 -1 13 -21 15 -53 2 -38 7 -53 18
-53 11 0 14 16 14 75 0 82 -6 89 -50 55z"></path>
<path d="M382 6648 c3 -68 5 -73 27 -76 59 -9 101 22 101 74 0 49 -29 74 -85
74 l-46 0 3 -72z m82 39 c22 -16 18 -65 -5 -80 -29 -18 -49 -1 -49 41 0 54 17
66 54 39z"></path>
<path d="M1450 6703 c0 -37 33 -133 46 -133 8 0 20 16 28 35 8 19 17 35 20 35
3 0 12 -16 21 -36 18 -43 36 -40 51 7 23 68 26 109 10 109 -10 0 -18 -14 -22
-37 -11 -62 -19 -68 -33 -24 -16 56 -29 59 -48 12 -19 -48 -29 -45 -38 9 -7
40 -35 58 -35 23z"></path>
<path d="M1964 6706 c-3 -7 -4 -40 -2 -72 2 -44 7 -59 18 -59 9 0 16 11 18 28
3 22 8 27 32 27 44 0 64 44 34 74 -19 20 -93 21 -100 2z m74 -18 c8 -8 9 -15
1 -25 -18 -21 -39 -15 -39 12 0 27 18 33 38 13z"></path>
<path d="M3775 6709 c-79 -11 -165 -28 -190 -38 -11 -5 -39 -17 -63 -27 -24
-9 -47 -25 -53 -35 -14 -28 -11 -75 9 -98 16 -19 112 -51 154 -51 29 0 20 -20
-9 -21 l-28 -1 25 -8 c14 -4 48 -8 75 -7 33 0 39 2 18 4 -18 2 -33 8 -33 12 0
5 91 11 203 14 135 4 225 11 272 22 39 9 86 20 106 24 20 5 54 17 75 28 37 19
39 23 42 71 3 50 2 51 -35 70 -79 40 -160 52 -339 51 -93 -1 -196 -5 -229 -10z
m502 -32 c28 -10 62 -26 75 -37 l23 -20 -28 -23 c-41 -34 -165 -68 -281 -77
-141 -11 -379 -10 -456 2 -69 10 -130 40 -130 64 0 34 120 80 260 99 137 20
468 14 537 -8z"></path>
<path d="M550 6674 c-20 -23 -16 -75 5 -90 40 -30 88 -5 88 44 0 40 -19 62
-53 62 -15 0 -33 -7 -40 -16z m64 -29 c8 -22 -4 -45 -24 -45 -20 0 -32 23 -24
45 4 8 14 15 24 15 10 0 20 -7 24 -15z"></path>
<path d="M665 6654 c15 -81 43 -107 62 -56 l10 27 12 -28 c19 -47 33 -32 65
71 6 16 3 22 -9 22 -9 0 -18 -12 -22 -30 -8 -43 -20 -45 -27 -5 -9 44 -22 45
-40 3 -14 -34 -16 -33 -32 20 -2 6 -9 12 -15 12 -7 0 -9 -12 -4 -36z"></path>
<path d="M840 6629 c0 -44 3 -60 13 -57 6 3 13 22 15 44 2 21 7 43 12 48 12
12 32 -31 28 -62 -2 -19 2 -27 12 -27 11 0 14 10 11 45 -4 57 -15 70 -57 70
l-34 0 0 -61z"></path>
<path d="M1034 6665 c-25 -39 -1 -95 42 -95 32 0 54 26 54 65 0 56 -66 76 -96
30z m64 -32 c-4 -34 -33 -43 -43 -14 -8 27 1 41 26 41 16 0 20 -6 17 -27z"></path>
<path d="M1165 6680 c-7 -11 -8 -11 22 -14 35 -4 37 -13 4 -19 -63 -13 -47
-80 18 -75 34 3 36 5 39 40 4 51 -12 78 -48 78 -16 0 -32 -4 -35 -10z m49 -80
c-6 -6 -15 -6 -24 0 -13 9 -13 11 0 20 18 11 39 -5 24 -20z"></path>
<path d="M1666 6668 c-9 -12 -16 -30 -16 -40 0 -28 38 -60 67 -56 39 4 42 28
4 28 -17 0 -31 5 -31 10 0 6 14 10 30 10 38 0 49 23 25 50 -24 26 -60 25 -79
-2z m54 -19 c0 -5 -7 -9 -15 -9 -15 0 -20 12 -9 23 8 8 24 -1 24 -14z"></path>
<path d="M2100 6680 c0 -5 8 -10 18 -10 32 0 33 -13 2 -26 -53 -23 -34 -74 27
-74 33 0 33 0 33 48 0 26 -5 53 -12 60 -14 14 -68 16 -68 2z m50 -70 c0 -11
-4 -20 -9 -20 -14 0 -23 18 -16 30 10 17 25 11 25 -10z"></path>
<path d="M2226 6677 c-21 -15 -25 -60 -6 -82 7 -8 24 -15 38 -15 31 0 18 -17
-16 -22 -34 -5 -32 -23 4 -26 47 -5 66 23 62 94 -3 57 -4 59 -33 62 -16 2 -38
-3 -49 -11z m52 -36 c5 -33 -14 -49 -34 -29 -13 13 -14 20 -4 37 14 27 34 23
38 -8z"></path>
<path d="M2346 6668 c-9 -12 -16 -30 -16 -40 0 -28 38 -60 67 -56 39 4 42 28
4 28 -17 0 -31 5 -31 10 0 6 16 10 35 10 28 0 35 4 35 19 0 48 -67 68 -94 29z
m58 -19 c-7 -11 -34 -12 -34 -1 0 14 11 21 26 15 8 -3 11 -9 8 -14z"></path>
<path d="M250 6630 c0 -5 14 -10 30 -10 17 0 30 5 30 10 0 6 -13 10 -30 10
-16 0 -30 -4 -30 -10z"></path>
<path d="M4365 6521 c-13 -22 -85 -51 -154 -63 -39 -7 -71 -16 -71 -20 0 -10
3 -10 85 5 39 8 85 22 104 31 33 17 34 17 27 0 -9 -23 -16 -57 -56 -264 -18
-91 -38 -187 -46 -215 -7 -27 -15 -63 -16 -79 -2 -18 -14 -37 -30 -49 -74 -55
-424 -72 -538 -26 -26 10 -42 58 -88 259 -6 25 -22 82 -36 128 -35 113 -55
215 -45 226 5 5 14 4 23 -3 8 -7 23 -11 33 -8 16 4 16 5 -2 11 -17 7 -55 23
-77 34 -21 10 -4 -79 58 -303 13 -49 33 -128 43 -175 23 -101 48 -197 56 -209
3 -6 31 -17 63 -26 87 -26 393 -17 474 14 31 12 61 27 66 34 6 7 18 50 26 97
9 47 23 114 32 150 15 66 67 305 84 394 10 48 1 82 -15 57z"></path>
<path d="M1317 6463 c-12 -11 -8 -23 8 -23 8 0 15 7 15 15 0 16 -12 20 -23 8z"></path>
<path d="M1820 6445 c0 -19 -5 -25 -23 -25 -32 0 -47 -18 -47 -55 0 -40 29
-68 67 -63 28 3 28 3 31 86 2 68 0 82 -13 82 -9 0 -15 -9 -15 -25z m-2 -84 c3
-27 0 -32 -15 -29 -19 3 -28 30 -19 54 10 26 31 10 34 -25z"></path>
<path d="M663 6453 c-16 -6 -17 -90 -3 -127 7 -18 17 -26 34 -26 35 0 42 18
12 30 -33 12 -37 59 -6 67 23 6 27 23 5 23 -9 0 -19 8 -23 18 -4 11 -13 17
-19 15z"></path>
<path d="M2417 6454 c-11 -11 -9 -112 3 -135 11 -20 54 -26 65 -9 3 6 -5 14
-19 20 -33 12 -37 59 -6 67 23 6 27 23 6 23 -7 0 -20 9 -27 21 -8 11 -17 17
-22 13z"></path>
<path d="M87 6444 c-13 -13 5 -24 28 -18 34 8 41 -14 12 -44 -30 -33 -48 -67
-40 -76 3 -3 26 -6 50 -6 32 0 43 4 43 15 0 10 -10 15 -31 15 l-31 0 31 35
c34 39 38 54 19 73 -13 13 -70 17 -81 6z"></path>
<path d="M401 6431 c-28 -28 -28 -84 0 -112 14 -14 30 -19 57 -17 35 3 37 5
40 41 4 43 -13 50 -28 12 -15 -40 -60 -26 -60 20 0 33 17 50 50 50 43 0 42 19
-2 23 -27 2 -43 -3 -57 -17z"></path>
<path d="M800 6375 c0 -58 3 -75 14 -75 9 0 16 12 18 28 2 20 9 28 28 30 34 5
50 20 50 46 0 33 -19 46 -67 46 l-43 0 0 -75z m64 49 c21 -8 20 -30 -1 -38
-21 -8 -38 8 -30 28 7 18 9 18 31 10z"></path>
<path d="M1950 6430 c-49 -49 -5 -135 64 -128 28 3 31 7 34 42 2 28 0 37 -10
34 -7 -3 -13 -13 -13 -24 0 -22 -30 -31 -50 -14 -38 31 0 97 49 84 20 -5 26
-2 26 10 0 25 -74 22 -100 -4z"></path>
<path d="M4090 6430 c0 -13 11 -13 30 0 12 8 11 10 -7 10 -13 0 -23 -4 -23
-10z"></path>
<path d="M3830 6420 c-62 -6 -61 -7 30 -7 52 0 124 3 160 7 63 7 62 7 -30 7
-52 0 -124 -3 -160 -7z"></path>
<path d="M540 6404 c-20 -23 -16 -75 6 -91 22 -16 66 -14 72 5 2 8 -7 12 -27
12 -17 0 -31 5 -31 10 0 6 16 10 35 10 37 0 44 14 25 51 -13 23 -62 26 -80 3z
m55 -14 c3 -6 -1 -13 -10 -16 -19 -8 -30 0 -20 15 8 14 22 14 30 1z"></path>
<path d="M937 6413 c-4 -3 -7 -30 -7 -60 0 -40 4 -53 15 -53 11 0 15 12 15 46
0 37 4 47 20 51 11 3 20 9 20 14 0 10 -53 12 -63 2z"></path>
<path d="M1030 6404 c-20 -23 -16 -75 6 -91 22 -16 66 -14 72 5 2 7 -6 12 -22
12 -13 0 -28 5 -31 10 -6 10 35 14 104 10 24 -1 32 2 29 12 -3 7 -18 12 -35
12 -23 -1 -33 4 -42 22 -13 28 -61 33 -81 8z m55 -14 c3 -6 -1 -13 -10 -16
-19 -8 -30 0 -20 15 8 14 22 14 30 1z"></path>
<path d="M1217 6413 c-15 -14 -6 -42 21 -62 l27 -20 -27 -1 c-19 0 -28 -5 -28
-16 0 -22 60 -15 74 9 9 15 6 22 -16 41 -33 26 -35 36 -8 36 11 0 20 5 20 10
0 11 -53 14 -63 3z"></path>
<path d="M1310 6360 c0 -47 3 -60 15 -60 12 0 15 13 15 60 0 47 -3 60 -15 60
-12 0 -15 -13 -15 -60z"></path>
<path d="M1386 6405 c-32 -32 -15 -95 26 -95 10 0 18 -4 18 -10 0 -5 -11 -10
-25 -10 -16 0 -25 -6 -25 -15 0 -21 54 -20 75 1 12 12 15 32 13 78 -3 60 -3
61 -34 64 -19 2 -38 -3 -48 -13z m54 -39 c0 -28 -8 -36 -26 -29 -17 6 -19 50
-1 56 18 7 27 -2 27 -27z"></path>
<path d="M1507 6413 c-4 -3 -7 -30 -7 -60 0 -40 4 -53 14 -53 11 0 16 14 18
48 2 34 7 47 18 47 11 0 16 -13 18 -47 2 -34 7 -48 18 -48 17 0 20 71 4 101
-11 19 -68 28 -83 12z"></path>
<path d="M1636 6398 c-9 -12 -16 -30 -16 -40 0 -28 38 -60 67 -56 39 4 42 28
4 28 -41 0 -40 18 1 22 38 3 48 27 23 52 -23 23 -61 20 -79 -6z m54 -19 c0 -5
-7 -9 -15 -9 -15 0 -20 12 -9 23 8 8 24 -1 24 -14z"></path>
<path d="M2087 6413 c-4 -3 -7 -30 -7 -60 0 -40 4 -53 15 -53 11 0 15 12 15
46 0 37 4 47 20 51 11 3 20 9 20 14 0 10 -53 12 -63 2z"></path>
<path d="M2180 6410 c0 -5 9 -10 20 -10 28 0 25 -17 -4 -24 -43 -11 -44 -61
-1 -72 46 -11 60 -2 63 44 2 24 -2 50 -9 58 -13 16 -69 19 -69 4z m50 -71 c0
-5 -9 -9 -20 -9 -22 0 -27 16 -7 23 15 5 27 -1 27 -14z"></path>
<path d="M2290 6359 c0 -43 3 -60 12 -57 8 3 11 20 10 45 -2 24 2 44 9 49 18
11 40 -26 37 -60 -2 -17 2 -31 10 -33 16 -6 17 88 0 105 -7 7 -27 12 -45 12
l-33 0 0 -61z"></path>
<path d="M2510 6405 c-16 -19 -6 -45 20 -52 28 -7 25 -23 -5 -23 -14 0 -25 -5
-25 -10 0 -16 27 -23 55 -16 35 9 35 53 -1 66 -28 11 -24 30 7 30 11 0 17 5
14 10 -9 15 -51 12 -65 -5z"></path>
<path d="M257 6374 c-15 -15 -6 -24 24 -24 20 0 29 4 27 13 -5 14 -40 21 -51
11z"></path>
<path d="M3895 6371 l-80 -6 0 -105 0 -105 105 0 105 0 3 108 c2 88 0 107 -12
107 -8 0 -20 1 -28 3 -7 2 -49 1 -93 -2z m110 -106 l0 -90 -85 0 -85 0 0 85 0
85 50 6 c28 4 66 6 85 5 l35 -1 0 -90z"></path>
<path d="M3375 6240 c-9 -14 3 -27 30 -32 14 -2 -32 -43 -175 -153 -107 -83
-221 -171 -254 -197 -34 -26 -92 -72 -131 -102 -38 -30 -176 -138 -305 -241
-242 -192 -404 -320 -494 -390 -28 -22 -105 -83 -171 -136 -66 -52 -235 -187
-375 -298 -140 -111 -280 -222 -310 -246 -30 -25 -80 -64 -110 -88 -30 -23
-100 -78 -155 -122 -187 -148 -230 -181 -256 -201 -15 -10 -91 -71 -171 -135
l-145 -117 -108 -1 c-93 -1 -112 -4 -128 -20 -18 -17 -19 -41 -21 -392 -3
-386 2 -481 23 -502 8 -8 49 -12 124 -12 l112 -1 62 -39 c34 -22 86 -56 115
-76 29 -20 168 -112 308 -204 140 -92 338 -223 440 -290 202 -133 344 -226
460 -300 41 -27 147 -96 235 -153 88 -58 198 -130 245 -160 335 -216 432 -279
465 -302 26 -18 278 -182 460 -299 33 -21 112 -72 175 -113 64 -41 127 -81
140 -88 l24 -13 -22 -15 c-12 -8 -22 -18 -22 -23 0 -13 67 -11 91 2 18 9 19
17 14 52 -4 23 -12 48 -17 54 -15 19 -30 4 -24 -23 4 -13 4 -24 1 -24 -4 0
-89 55 -490 318 -301 197 -547 358 -655 427 -91 58 -225 146 -380 247 -204
133 -313 203 -420 268 -58 35 -116 73 -130 86 -14 12 -72 52 -130 90 -101 65
-366 238 -707 462 -90 59 -163 110 -163 114 0 4 42 6 94 5 73 -1 99 2 120 16
l26 17 0 200 c0 135 4 201 11 206 6 3 37 -1 68 -10 31 -8 133 -34 226 -56 94
-23 343 -84 555 -136 212 -52 432 -106 490 -120 58 -14 148 -36 200 -49 52
-14 127 -32 165 -40 39 -9 93 -22 120 -30 28 -7 75 -19 105 -25 30 -6 75 -17
100 -25 25 -7 95 -24 155 -39 61 -14 193 -46 295 -70 102 -25 211 -50 243 -58
58 -13 69 -21 42 -32 -21 -8 -19 -36 3 -36 10 0 33 13 52 28 l33 28 -24 44
c-30 55 -55 66 -46 21 4 -17 4 -31 1 -31 -3 0 -105 25 -227 55 -365 90 -872
213 -1032 251 -82 20 -172 42 -200 50 -27 8 -135 35 -240 60 -388 93 -842 204
-890 218 -27 8 -67 18 -88 22 -20 3 -39 10 -42 14 -5 8 386 166 1245 502 85
34 241 94 345 135 179 71 260 103 535 210 63 25 158 63 210 84 52 21 157 63
233 93 l138 54 -3 -25 c-5 -43 16 -36 40 12 12 25 22 48 22 51 0 3 -21 14 -46
26 -31 13 -49 17 -56 10 -7 -7 -3 -15 11 -24 24 -15 27 -28 6 -28 -8 0 -34 -9
-57 -19 -41 -18 -85 -36 -238 -94 -36 -14 -141 -55 -235 -92 -93 -36 -237 -93
-320 -125 -82 -32 -247 -97 -365 -143 -118 -47 -258 -102 -310 -122 -52 -20
-291 -115 -530 -210 -239 -95 -457 -180 -485 -190 -27 -10 -54 -22 -60 -25 -5
-4 -35 -17 -65 -28 -30 -11 -63 -23 -72 -27 -17 -7 -18 6 -18 192 0 255 6 243
-136 243 -68 0 -103 4 -99 10 3 6 63 55 133 109 184 144 328 257 413 326 40
33 104 83 140 110 37 28 171 133 299 235 127 102 316 251 418 333 103 81 205
162 227 180 22 17 116 92 210 165 93 73 177 138 185 145 8 7 38 30 65 53 28
23 167 133 310 245 415 325 507 397 555 435 44 35 45 35 50 13 8 -31 28 -35
34 -7 12 61 15 88 8 91 -21 12 -101 17 -107 7z m-2754 -2475 c9 -3 19 -15 22
-25 3 -12 1 -18 -5 -14 -7 4 -7 0 0 -13 13 -23 15 -363 3 -363 -6 0 -6 -13 0
-32 14 -50 12 -371 -3 -386 -8 -8 -47 -12 -110 -12 -89 0 -116 8 -88 25 18 11
11 63 -12 85 -23 21 -63 26 -87 11 -22 -14 -31 -87 -12 -105 14 -15 6 -16 -91
-16 -79 0 -109 4 -117 14 -17 21 -9 789 8 810 7 8 29 16 49 18 69 6 427 8 443
3z m-197 -767 c13 -36 -16 -70 -53 -66 -21 2 -27 9 -29 36 -5 51 3 64 40 60
25 -2 35 -9 42 -30z"></path>
<path d="M310 3733 c-98 -7 -110 -11 -110 -42 0 -48 19 -55 143 -51 97 2 175
6 199 9 3 1 10 15 13 33 11 48 -11 58 -114 56 -47 -1 -106 -3 -131 -5z m227
-29 c3 -8 2 -19 -3 -24 -5 -5 -76 -10 -159 -12 -144 -3 -150 -2 -150 17 0 17
9 21 65 26 36 3 105 6 153 7 71 2 89 -1 94 -14z"></path>
<path d="M243 3612 c-61 -2 -75 -6 -84 -23 -13 -24 -20 -90 -19 -179 0 -36 0
-90 -1 -120 -1 -75 12 -210 20 -210 3 0 6 110 6 244 0 151 4 249 10 254 6 5
103 12 218 16 l207 7 -2 -253 -3 -253 -205 -6 c-113 -3 -206 -7 -207 -7 -2 -1
-3 -7 -3 -13 0 -7 12 -9 34 -5 18 4 45 2 59 -3 18 -7 28 -7 33 0 3 6 42 9 92
8 103 -2 204 9 214 25 4 6 8 122 8 257 0 200 -3 249 -14 258 -13 11 -141 12
-363 3z"></path>
<path d="M667 6213 c-11 -10 -8 -132 3 -154 14 -25 46 -27 34 -1 -4 9 -10 46
-12 82 -4 64 -12 87 -25 73z"></path>
<path d="M1306 6213 c-10 -10 -7 -133 4 -154 6 -10 17 -19 25 -19 17 0 20 16
5 25 -5 3 -10 37 -10 75 0 64 -8 89 -24 73z"></path>
<path d="M1049 6203 c-1 -5 -2 -14 -3 -22 0 -8 -14 -18 -30 -22 -34 -9 -46
-24 -46 -60 0 -34 29 -59 68 -59 38 0 44 15 40 104 -2 45 -7 66 -15 66 -7 0
-14 -3 -14 -7z m-6 -85 c6 -21 -4 -48 -19 -48 -18 0 -28 24 -20 45 7 18 33 20
39 3z"></path>
<path d="M1172 6198 c-7 -7 -12 -42 -12 -85 0 -58 3 -73 15 -73 11 0 15 12 15
46 0 37 4 47 20 51 11 3 20 9 20 14 0 5 -9 9 -20 9 -27 0 -25 16 2 23 26 7 52
-11 40 -27 -13 -20 -6 -111 9 -111 11 0 14 19 14 80 l0 79 -46 3 c-25 2 -50
-2 -57 -9z"></path>
<path d="M90 6175 c0 -11 7 -14 25 -9 19 5 25 2 25 -10 0 -9 -7 -16 -15 -16
-23 0 -18 -27 6 -33 29 -8 19 -31 -17 -37 -16 -3 -29 -10 -29 -15 0 -15 51
-18 75 -5 18 9 20 18 16 65 -3 30 -8 59 -11 65 -10 17 -75 12 -75 -5z"></path>
<path d="M380 6137 c0 -62 20 -97 56 -97 53 0 64 15 64 85 0 50 -3 65 -15 65
-10 0 -15 -15 -17 -57 -2 -47 -6 -58 -22 -61 -26 -5 -36 15 -36 71 0 35 -4 47
-15 47 -11 0 -15 -13 -15 -53z"></path>
<path d="M537 6153 c-4 -3 -7 -39 -7 -80 0 -58 3 -73 15 -73 8 0 15 9 15 20 0
14 7 20 23 20 50 0 76 70 39 103 -18 17 -73 23 -85 10z m68 -53 c0 -18 -6 -26
-22 -28 -20 -3 -23 1 -23 28 0 27 3 31 23 28 16 -2 22 -10 22 -28z"></path>
<path d="M740 6144 c-20 -23 -16 -75 5 -90 40 -30 88 -5 88 44 0 40 -19 62
-53 62 -15 0 -33 -7 -40 -16z m64 -29 c8 -22 -4 -45 -24 -45 -10 0 -20 7 -24
15 -8 22 4 45 24 45 10 0 20 -7 24 -15z"></path>
<path d="M865 6150 c-3 -5 -4 -11 -1 -11 3 -1 11 -3 16 -4 6 -1 16 -3 23 -4 6
-1 -3 -8 -20 -16 -58 -25 -36 -79 29 -73 29 3 33 7 36 34 5 51 -13 84 -47 84
-16 0 -33 -4 -36 -10z m53 -72 c-3 -7 -11 -13 -18 -13 -7 0 -15 6 -17 13 -3 7
4 12 17 12 13 0 20 -5 18 -12z"></path>
<path d="M1376 6138 c-32 -46 -5 -101 47 -96 42 4 48 28 8 28 -17 0 -31 5 -31
10 0 6 16 10 35 10 28 0 35 4 35 19 0 48 -67 68 -94 29z m54 -18 c0 -5 -7 -10
-15 -10 -8 0 -15 5 -15 10 0 6 7 10 15 10 8 0 15 -4 15 -10z"></path>
<path d="M250 6100 c0 -5 14 -10 30 -10 17 0 30 5 30 10 0 6 -13 10 -30 10
-16 0 -30 -4 -30 -10z"></path>
<path d="M3724 6090 c-32 -13 -68 -69 -68 -107 0 -22 9 -42 29 -63 41 -43 52
-37 16 7 -35 42 -38 61 -16 103 28 53 91 67 139 29 55 -43 15 -159 -55 -159
-16 0 -29 -4 -29 -10 0 -5 8 -10 18 -10 39 0 62 14 88 51 22 32 26 46 21 80
-10 75 -71 108 -143 79z"></path>
<path d="M4044 6048 c-10 -22 -31 -59 -47 -80 -16 -23 -26 -46 -22 -55 7 -20
8 -20 54 67 21 41 44 76 50 78 6 2 15 -7 21 -20 6 -13 21 -41 35 -63 13 -22
22 -46 20 -52 -2 -7 2 -13 10 -13 19 0 19 0 -12 67 -32 70 -63 113 -78 113 -7
0 -20 -19 -31 -42z"></path>
<path d="M1289 5946 c-2 -2 -2 -39 1 -83 4 -65 8 -78 23 -81 14 -3 18 1 13 15
-3 10 -6 48 -8 86 -2 59 -11 80 -29 63z"></path>
<path d="M110 5888 c-38 -52 -38 -68 0 -68 23 0 30 -4 30 -20 0 -29 23 -24 38
7 8 18 9 30 2 37 -5 5 -10 27 -10 48 0 51 -21 50 -60 -4z m27 -45 c-3 -3 -11
-2 -17 2 -8 5 -7 11 2 22 12 15 13 14 16 -1 2 -10 1 -20 -1 -23z"></path>
<path d="M401 5911 c-28 -28 -28 -84 -1 -111 13 -13 33 -20 60 -20 l40 0 0 41
c0 43 -22 52 -28 11 -5 -34 -50 -30 -58 5 -10 37 7 57 50 61 48 4 43 26 -7 30
-26 2 -42 -3 -56 -17z"></path>
<path d="M650 5872 c0 -68 15 -95 51 -90 23 3 30 22 9 24 -5 1 -14 2 -20 3 -5
0 -10 15 -10 31 0 23 4 30 20 30 11 0 20 7 20 15 0 8 -7 15 -15 15 -9 0 -18 7
-21 15 -4 8 -12 15 -20 15 -10 0 -14 -15 -14 -58z"></path>
<path d="M800 5855 c0 -60 3 -75 15 -75 9 0 15 9 15 25 0 14 6 25 13 25 8 0
20 -11 27 -25 7 -14 22 -25 32 -25 18 0 19 1 1 30 -13 23 -15 32 -5 42 33 33
-1 78 -59 78 l-39 0 0 -75z m75 25 c0 -22 -39 -19 -43 3 -3 15 1 18 20 15 12
-2 23 -10 23 -18z"></path>
<path d="M1350 5867 c0 -68 10 -87 47 -87 28 0 30 16 3 23 -14 4 -20 14 -20
35 0 21 6 31 20 35 23 6 27 27 5 27 -9 0 -18 7 -21 15 -4 8 -12 15 -20 15 -11
0 -14 -16 -14 -63z"></path>
<path d="M4050 5910 c0 -5 16 -10 35 -10 19 0 35 5 35 10 0 6 -16 10 -35 10
-19 0 -35 -4 -35 -10z"></path>
<path d="M4018 5903 c7 -3 16 -2 19 1 4 3 -2 6 -13 5 -11 0 -14 -3 -6 -6z"></path>
<path d="M549 5890 c-25 -15 -32 -58 -14 -86 19 -29 85 -35 85 -8 0 10 -6 14
-15 10 -18 -6 -45 2 -45 15 0 5 16 9 35 9 27 0 35 4 35 18 0 22 -30 52 -51 52
-8 0 -21 -5 -30 -10z m41 -30 c0 -5 -7 -10 -15 -10 -8 0 -15 5 -15 10 0 6 7
10 15 10 8 0 15 -4 15 -10z"></path>
<path d="M947 5882 c-39 -43 -9 -105 47 -100 34 3 38 22 4 23 -12 0 -23 6 -25
13 -3 8 6 12 26 12 26 0 31 4 31 23 0 46 -52 64 -83 29z m53 -22 c0 -5 -7 -10
-15 -10 -8 0 -15 5 -15 10 0 6 7 10 15 10 8 0 15 -4 15 -10z"></path>
<path d="M1062 5883 c-13 -25 -4 -43 25 -54 27 -10 22 -32 -6 -27 -10 2 -20
-1 -22 -7 -6 -15 50 -18 67 -4 21 17 17 38 -11 51 -30 14 -33 28 -5 28 11 0
20 7 20 15 0 22 -57 20 -68 -2z"></path>
<path d="M1160 5851 c0 -57 15 -74 62 -69 33 3 33 3 33 57 0 35 -5 56 -12 59
-9 2 -13 -10 -13 -40 0 -49 -5 -59 -26 -51 -9 3 -14 21 -14 49 0 32 -4 44 -15
44 -11 0 -15 -12 -15 -49z"></path>
<path d="M1453 5893 c-23 -9 -15 -49 13 -61 28 -13 23 -37 -7 -29 -12 3 -19 0
-19 -9 0 -19 54 -18 70 1 16 19 6 45 -20 52 -26 7 -26 23 0 23 11 0 20 7 20
15 0 15 -31 19 -57 8z"></path>
<path d="M250 5840 c0 -5 14 -10 30 -10 17 0 30 5 30 10 0 6 -13 10 -30 10
-16 0 -30 -4 -30 -10z"></path>
<path d="M3985 5661 c-3 -5 -1 -12 5 -16 5 -3 10 -28 10 -55 0 -40 -3 -48 -15
-44 -8 4 -22 1 -30 -6 -16 -13 -45 -7 -45 10 0 5 10 10 23 10 34 0 50 15 42
39 -7 24 -53 29 -73 9 -10 -10 -12 -7 -10 12 2 17 -2 25 -12 25 -10 0 -16 -12
-18 -37 -3 -38 -16 -50 -25 -25 -4 9 -8 9 -15 -2 -8 -11 -11 -7 -14 20 -2 22
-9 35 -20 37 -14 3 -16 -5 -11 -60 6 -72 18 -92 38 -65 8 12 15 14 20 8 14
-23 33 -9 42 32 l11 42 1 -37 c1 -45 30 -66 67 -50 12 6 38 8 57 5 64 -10 104
35 73 82 -9 14 -23 25 -31 25 -9 0 -20 11 -25 25 -9 25 -34 33 -45 16z m80
-92 c0 -15 -7 -25 -17 -27 -13 -3 -18 3 -18 21 0 13 3 27 7 31 13 12 28 -1 28
-25z"></path>
<path d="M4090 5410 c0 -11 -7 -23 -15 -26 -17 -7 -21 -34 -5 -34 6 0 10 -15
10 -34 0 -19 3 -41 6 -50 8 -21 54 -21 54 -1 0 8 -7 15 -15 15 -10 0 -15 10
-15 30 0 18 6 33 15 36 8 4 15 15 15 25 0 10 -7 19 -15 19 -8 0 -15 9 -15 20
0 11 -4 20 -10 20 -5 0 -10 -9 -10 -20z"></path>
<path d="M4182 5378 c-23 -23 -14 -48 23 -64 20 -8 33 -19 30 -24 -10 -15 -45
-12 -51 5 -7 18 -34 20 -34 3 0 -24 15 -36 50 -43 69 -13 92 62 25 79 -36 9
-20 29 17 21 25 -6 29 -4 26 12 -4 22 -66 31 -86 11z"></path>
<path d="M3783 5373 c-60 -8 -67 -53 -12 -72 16 -5 29 -15 29 -20 0 -17 -36
-13 -51 5 -12 14 -14 14 -26 -2 -12 -17 -13 -17 -13 0 0 9 -7 30 -15 46 -17
32 -54 41 -72 18 -13 -18 -14 -90 -1 -106 11 -13 75 -7 92 9 5 4 24 2 42 -6
27 -11 35 -11 51 0 15 10 28 11 61 2 36 -9 44 -8 62 8 20 18 21 18 34 0 10
-14 20 -16 49 -11 40 7 55 22 39 38 -7 7 -18 5 -34 -6 -25 -16 -38 -13 -38 11
0 8 12 13 29 13 36 0 41 8 30 38 -13 35 -67 31 -81 -6 -11 -28 -11 -28 -44
-13 -35 16 -47 37 -16 28 44 -12 47 -12 47 8 0 15 -8 21 -33 23 -63 6 -88 -50
-32 -71 17 -6 30 -17 30 -24 0 -18 -39 -16 -46 2 -4 8 -12 15 -20 15 -8 0 -22
4 -32 9 -9 5 -26 12 -36 16 -14 4 -16 9 -9 16 8 8 17 8 31 0 29 -15 32 -14 32
14 0 14 -3 24 -7 23 -5 0 -22 -3 -40 -5z m-120 -50 c-7 -2 -19 -2 -25 0 -7 3
-2 5 12 5 14 0 19 -2 13 -5z m7 -48 c0 -8 -6 -15 -14 -15 -17 0 -28 14 -19 24
12 12 33 6 33 -9z"></path>
<path d="M1618 5141 c-33 -19 -37 -41 -8 -41 17 0 20 -7 20 -50 0 -38 4 -50
15 -50 12 0 15 15 15 74 0 41 -3 77 -7 79 -5 2 -20 -3 -35 -12z"></path>
<path d="M6035 4983 c-138 -63 -191 -107 -270 -226 -46 -69 -82 -197 -56 -197
5 0 12 21 16 48 9 60 33 111 87 187 55 75 121 125 224 170 74 31 90 35 188 36
58 1 106 6 106 10 0 5 -48 9 -107 9 -103 0 -112 -2 -188 -37z"></path>
<path d="M3865 4975 l-60 -34 -6 -81 c-4 -45 -10 -85 -15 -90 -5 -4 -29 -15
-54 -23 l-45 -15 -3 -71 c-2 -52 0 -71 10 -72 7 -1 18 -2 23 -4 6 -1 26 -3 46
-3 29 -2 38 -7 43 -24 9 -35 -6 -41 -93 -33 l-80 7 -3 126 c-2 70 -1 133 1
141 3 9 14 11 37 7 96 -17 109 -18 99 -9 -5 6 -41 18 -80 27 l-70 16 -65 -33
-65 -34 1 -89 c1 -49 3 -110 5 -136 l2 -48 76 -1 c42 0 112 -1 156 -2 l80 -2
0 -53 0 -54 -139 -4 c-77 -2 -148 -6 -158 -10 -17 -5 -18 -16 -16 -136 2 -104
6 -133 18 -139 85 -45 120 -57 147 -49 98 31 137 40 144 33 5 -5 10 -35 12
-68 2 -38 8 -61 18 -66 8 -4 39 -19 69 -33 l55 -27 60 30 c34 16 66 35 72 43
7 7 13 41 15 73 2 33 8 59 13 59 6 -1 25 -5 43 -9 19 -4 32 -3 32 3 0 6 -18
13 -40 17 -22 4 -40 10 -40 13 0 4 24 16 53 27 l52 21 0 73 0 73 -48 3 c-54 3
-71 14 -65 41 3 18 10 19 138 11 l25 -2 3 -143 3 -144 -31 7 c-31 7 -43 -8
-14 -19 32 -12 71 -4 129 27 l60 32 0 135 0 135 -154 1 c-172 1 -175 2 -169
72 l3 37 115 6 c63 4 134 7 158 8 l43 1 -3 138 -3 137 -64 33 c-58 29 -67 32
-100 22 -73 -22 -121 -42 -121 -49 0 -8 68 8 103 23 40 18 45 4 46 -137 l2
-135 -28 -6 c-25 -5 -110 -9 -140 -7 -7 1 -13 10 -13 21 0 20 7 23 81 35 34 5
37 8 41 48 3 24 3 57 1 74 -4 28 -11 33 -56 45 -29 8 -52 19 -53 24 0 5 -4 16
-7 24 -4 8 -8 42 -9 74 l-3 60 -50 29 c-72 42 -99 42 -170 2z m72 -213 c1
-114 4 -348 7 -520 3 -243 2 -314 -8 -318 -7 -3 -33 7 -59 22 -42 23 -47 30
-48 62 -1 34 -3 193 -8 706 -3 218 -7 202 64 253 20 14 33 18 40 12 6 -6 11
-96 12 -217z m72 207 c22 -11 44 -26 50 -33 7 -8 13 -123 16 -307 9 -489 8
-638 -5 -654 -17 -20 -99 -65 -104 -57 -2 4 -5 120 -5 257 -1 138 -4 373 -6
524 -2 151 -2 278 1 283 7 11 8 11 53 -13z m327 -158 c63 -31 65 -36 62 -157
l-3 -109 -52 -3 -53 -3 0 63 c0 35 -3 100 -7 146 -3 50 -2 82 4 82 5 0 27 -9
49 -19z m-726 -152 l0 -140 -52 3 -53 3 0 120 0 120 45 21 c25 12 48 20 53 17
4 -2 7 -67 7 -144z m578 68 c14 -11 17 -93 3 -102 -6 -3 -28 -3 -50 1 -40 6
-40 7 -46 59 -4 30 -4 58 -1 63 6 11 71 -4 94 -21z m-388 -43 c0 -49 -2 -55
-26 -64 -14 -6 -36 -10 -50 -10 -24 0 -25 2 -22 57 l3 56 40 12 c22 6 43 10
48 8 4 -2 7 -29 7 -59z m598 -425 c3 -126 5 -121 -61 -158 -29 -16 -39 -18
-43 -8 -2 7 -3 71 -2 142 l3 130 30 6 c70 16 70 16 73 -112z m-799 92 c15 -8
17 -28 20 -135 1 -69 0 -130 -3 -135 -3 -5 -28 2 -56 16 l-50 25 0 112 c0 62
3 116 7 119 9 10 62 8 82 -2z m211 -10 c0 -26 -9 -31 -70 -38 l-50 -6 0 -67
c0 -77 6 -86 68 -96 23 -4 42 -10 42 -14 0 -8 -152 -61 -158 -55 -7 6 -15 263
-9 279 5 13 23 16 92 16 77 0 85 -2 85 -19z m0 -51 c0 -5 -7 -10 -15 -10 -8 0
-15 5 -15 10 0 6 7 10 15 10 8 0 15 -4 15 -10z m388 -59 c3 -42 0 -52 -15 -57
-10 -3 -26 -10 -35 -15 -39 -20 -48 -12 -48 46 0 49 3 56 28 69 49 27 67 16
70 -43z m-400 26 c8 -7 12 -28 10 -61 -3 -50 -4 -51 -33 -48 -54 6 -75 27 -75
76 0 23 3 45 6 49 8 8 76 -4 92 -16z"></path>
<path d="M6350 4996 c0 -2 31 -20 70 -39 98 -50 132 -75 180 -132 51 -62 110
-190 110 -240 0 -8 5 -15 10 -15 14 0 12 23 -4 67 -8 21 -17 49 -20 63 -5 24
-81 134 -121 177 -25 26 -130 93 -147 93 -7 0 -22 7 -32 15 -18 14 -46 20 -46
11z"></path>
<path d="M6052 4861 c-9 -5 -12 -26 -10 -67 l3 -59 40 -3 c48 -4 61 -14 69
-53 4 -23 -5 -50 -45 -127 -28 -53 -77 -146 -108 -207 -31 -60 -65 -122 -75
-137 -10 -15 -15 -32 -11 -38 9 -15 130 -13 143 3 5 6 42 75 82 152 40 77 76
144 80 149 8 8 60 -90 60 -113 0 -7 10 -33 22 -59 12 -26 23 -51 24 -57 6 -23
31 -85 36 -90 5 -5 114 32 176 61 36 17 36 25 4 94 -14 28 -22 34 -42 31 -68
-10 -62 -15 -105 83 -38 89 -42 59 -4 -34 31 -75 36 -81 59 -77 14 2 33 7 42
11 19 9 46 -25 50 -62 3 -19 -6 -27 -47 -44 -27 -11 -64 -27 -82 -34 -17 -8
-33 -14 -36 -14 -4 0 -80 191 -129 323 -6 15 -13 27 -17 27 -7 0 -26 -35 -113
-200 -33 -63 -65 -121 -70 -127 -12 -15 -108 -18 -108 -3 0 9 52 112 120 235
113 206 121 225 110 265 -12 46 -25 57 -70 62 -34 3 -35 4 -38 51 l-3 47 81 0
c52 0 79 4 75 10 -7 12 -144 13 -163 1z"></path>
<path d="M6225 4818 c4 -13 22 -59 41 -103 19 -45 34 -86 34 -92 0 -6 7 -16
15 -23 20 -17 18 -4 -5 45 -11 22 -19 45 -20 51 0 5 -9 28 -19 50 -11 22 -23
52 -26 67 -4 15 -11 27 -17 27 -5 0 -6 -10 -3 -22z"></path>
<path d="M6335 4543 c7 -21 18 -39 24 -41 8 -3 8 3 1 20 -6 13 -13 31 -16 41
-4 9 -10 17 -14 17 -4 0 -2 -17 5 -37z"></path>
<path d="M6718 4452 c-5 -101 -9 -116 -43 -187 -46 -96 -97 -152 -189 -210
-115 -71 -245 -92 -376 -61 -117 28 -253 125 -318 229 -36 57 -73 165 -77 227
-1 14 -3 33 -3 43 -1 10 -7 15 -13 12 -6 -4 -17 2 -25 14 -8 12 -22 21 -30 21
-16 0 -19 -26 -4 -35 6 -3 10 -10 10 -14 0 -5 -280 -8 -621 -9 -590 0 -661 -3
-637 -27 3 -4 288 -6 632 -5 344 0 626 -2 626 -5 0 -3 -5 -14 -12 -25 -19 -29
-1 -36 27 -10 14 13 26 22 28 19 2 -2 11 -40 21 -84 27 -115 49 -157 139 -251
57 -60 98 -94 141 -115 199 -99 400 -74 568 71 53 46 78 81 132 187 32 62 36
80 42 179 4 68 3 118 -3 129 -7 12 -11 -12 -15 -93z"></path>
<path d="M1597 3959 c-24 -14 -10 -32 18 -25 39 10 39 -12 1 -54 -20 -22 -36
-44 -36 -50 0 -13 40 -22 76 -18 39 4 42 27 4 34 l-31 7 25 26 c31 32 33 66 7
81 -24 13 -41 12 -64 -1z"></path>
<path d="M5915 3806 c-16 -12 -17 -18 -8 -39 7 -15 26 -33 43 -42 17 -9 28
-20 25 -25 -9 -15 -31 -12 -45 5 -18 22 -32 18 -28 -7 3 -24 6 -24 126 -27 25
-1 35 -7 41 -25 17 -43 103 -41 109 2 2 14 11 22 22 22 22 0 35 16 20 25 -14
9 7 45 26 45 12 0 15 -9 12 -37 -3 -32 0 -38 17 -38 17 0 20 6 17 40 -5 53
-24 72 -72 72 l-39 0 6 -43 c6 -46 -1 -53 -31 -31 -18 13 -18 15 -1 40 15 24
15 28 2 33 -8 3 -28 4 -44 2 -24 -3 -28 -8 -31 -38 -2 -19 -7 -39 -12 -44 -10
-10 -33 30 -27 47 2 7 0 20 -4 29 -6 10 -5 19 1 23 12 7 4 25 -11 25 -5 0 -9
-9 -9 -20 0 -11 -7 -20 -15 -20 -8 0 -15 6 -15 14 0 7 -10 16 -22 20 -31 8
-32 8 -53 -8z m59 -32 c3 -8 10 -13 15 -10 14 9 33 -21 29 -45 -4 -31 -26 -36
-30 -7 -2 13 -15 28 -30 36 -16 7 -28 20 -28 28 0 19 36 18 44 -2z m148 -29
c0 -5 -5 -11 -11 -13 -6 -2 -11 4 -11 13 0 9 5 15 11 13 6 -2 11 -8 11 -13z
m33 -85 c0 -23 -59 -20 -63 3 -3 15 2 18 30 15 21 -2 33 -8 33 -18z"></path>
<path d="M6387 3814 c-18 -18 -5 -54 31 -82 33 -27 35 -31 18 -38 -13 -5 -23
-2 -31 9 -17 23 -35 21 -35 -3 0 -27 65 -40 88 -17 13 13 13 21 4 42 -6 14
-18 25 -26 25 -7 0 -19 7 -27 16 -19 24 9 39 33 17 11 -10 18 -12 18 -5 0 7 9
12 20 12 21 0 27 -15 10 -25 -20 -12 -10 -27 14 -21 14 3 27 2 31 -4 6 -10
-29 -50 -45 -50 -5 0 -10 -4 -10 -10 0 -17 46 -11 63 8 19 21 23 67 7 77 -6 4
-10 16 -8 28 3 21 -2 22 -72 25 -42 1 -79 0 -83 -4z"></path>
<path d="M3735 3730 c-38 -75 -42 -90 -22 -90 10 1 78 132 77 153 0 25 -25 -3
-55 -63z"></path>
<path d="M3935 3770 c5 -14 2 -20 -9 -20 -9 0 -16 4 -16 9 0 12 -72 11 -87 -1
-22 -18 -15 -47 12 -54 13 -3 29 -12 36 -20 17 -21 -17 -30 -40 -10 -22 20
-41 21 -41 2 0 -15 52 -46 76 -46 7 0 20 10 28 22 19 27 6 55 -29 64 -41 10
-28 24 18 20 37 -3 42 -7 45 -31 2 -15 -1 -32 -7 -38 -18 -18 -13 -27 17 -27
19 0 30 -7 37 -22 7 -17 20 -24 48 -26 45 -4 67 11 67 44 0 16 -8 28 -25 36
l-25 11 21 34 c11 18 19 33 17 34 -2 1 -17 2 -35 4 -38 3 -65 -21 -61 -55 2
-12 -3 -25 -9 -27 -12 -4 -19 47 -14 100 2 10 -5 17 -14 17 -12 0 -15 -6 -10
-20z m105 -50 c0 -5 -7 -10 -15 -10 -8 0 -15 5 -15 10 0 6 7 10 15 10 8 0 15
-4 15 -10z m21 -76 c10 -13 10 -17 -2 -25 -24 -15 -54 -6 -57 19 -3 18 1 22
21 22 14 0 30 -7 38 -16z"></path>
<path d="M4090 3741 c0 -6 5 -13 11 -16 6 -4 9 -23 7 -43 -2 -29 1 -37 15 -40
16 -3 18 1 13 25 -5 21 -2 34 8 43 13 10 17 9 22 -4 3 -9 3 -27 0 -41 -6 -22
-3 -25 19 -25 24 0 25 2 19 43 -4 23 -11 48 -17 55 -11 14 -97 17 -97 3z"></path>
<path d="M6145 3575 c-4 -11 -17 -28 -29 -37 -19 -15 -19 -17 -3 -23 12 -5 17
-18 17 -45 0 -51 37 -89 56 -59 4 7 -1 16 -10 21 -20 11 -21 64 -1 72 19 7 20
32 1 39 -8 3 -16 16 -18 29 -4 22 -5 22 -13 3z"></path>
<path d="M6219 3548 c-1 -7 -2 -42 -3 -77 l-2 -63 38 5 c21 3 41 1 44 -4 9
-15 40 -10 57 9 25 28 21 69 -7 87 -31 20 -63 6 -72 -30 -3 -14 -10 -25 -14
-25 -11 0 -18 84 -8 88 4 2 8 8 8 13 0 14 -40 11 -41 -3z m121 -73 c16 -20 5
-45 -20 -45 -14 0 -20 7 -20 23 0 38 18 48 40 22z"></path>
<path d="M5897 3508 c-9 -24 -20 -58 -23 -77 -6 -29 -5 -33 12 -29 10 2 18 10
16 16 -5 25 30 26 48 2 15 -21 20 -22 34 -11 12 10 19 11 30 2 11 -10 24 -9
55 0 44 13 46 16 31 39 -7 12 -13 11 -34 -9 -22 -20 -28 -22 -41 -11 -9 8 -15
25 -13 39 3 23 7 26 41 24 38 -2 45 5 25 25 -32 32 -86 4 -90 -45 -3 -47 -13
-41 -29 19 -18 68 -40 74 -62 16z m43 -22 c0 -16 -18 -31 -27 -22 -8 8 5 36
17 36 5 0 10 -6 10 -14z"></path>
<path d="M6510 3515 c0 -17 9 -29 30 -40 31 -16 37 -29 19 -40 -6 -4 -20 2
-32 13 -12 11 -28 17 -34 15 -7 -3 -13 2 -13 10 0 27 -30 47 -70 47 l-38 0 5
-42 c2 -24 7 -49 9 -56 7 -24 29 -6 29 24 0 20 6 30 19 32 17 4 18 0 13 -33
-7 -40 12 -57 38 -35 8 7 26 9 44 5 44 -10 71 2 71 30 0 17 -9 29 -30 40 -29
15 -44 43 -17 32 47 -19 47 -19 47 2 0 18 -6 21 -45 21 -41 0 -45 -2 -45 -25z"></path>
<path d="M1587 3334 c-11 -12 3 -24 29 -24 13 0 24 -4 24 -10 0 -5 -6 -10 -14
-10 -27 0 -27 -20 -1 -30 34 -13 27 -35 -11 -35 -45 -1 -38 -29 8 -33 30 -3
40 1 53 22 13 19 14 29 6 45 -6 11 -8 27 -5 35 9 24 -15 46 -51 46 -17 0 -35
-3 -38 -6z"></path>
<path d="M6150 3126 c-105 -44 -160 -78 -207 -130 -66 -72 -113 -168 -120
-245 -3 -33 -8 -61 -11 -61 -3 0 -16 10 -29 21 -20 20 -23 20 -29 5 -4 -11 0
-22 12 -31 18 -14 18 -15 -3 -21 -27 -8 -29 -19 -5 -33 14 -9 15 -12 3 -20
-15 -10 -8 -41 8 -41 6 0 15 9 21 20 16 30 28 24 36 -17 28 -153 132 -290 276
-365 61 -32 66 -33 188 -33 119 0 128 1 184 30 86 44 175 130 211 204 23 48
34 61 50 59 17 -3 21 4 23 35 2 21 -2 45 -8 52 -8 10 -8 19 0 35 16 29 9 85
-10 85 -12 0 -17 -19 -22 -80 -13 -155 -113 -280 -278 -349 -164 -68 -424 15
-520 167 -56 88 -70 125 -79 212 -12 105 -2 167 39 250 52 103 99 149 208 202
96 48 98 48 197 48 91 0 106 -3 165 -31 95 -45 137 -77 186 -139 40 -52 52
-83 92 -225 l10 -35 1 41 c3 110 -101 283 -204 337 -115 61 -167 77 -250 77
-60 -1 -94 -7 -135 -24z"></path>
<path d="M3805 3110 c-107 -13 -135 -20 -135 -31 0 -6 12 -8 28 -5 272 55 714
13 712 -68 -1 -21 -50 -47 -127 -68 -64 -17 -114 -22 -278 -26 -303 -6 -481
24 -473 80 2 17 20 32 68 55 36 18 56 32 45 32 -11 0 -45 -12 -75 -27 -53 -26
-55 -29 -58 -71 -4 -57 21 -84 93 -101 59 -14 78 -37 23 -26 -27 5 -30 4 -14
-5 89 -53 673 -47 750 7 29 20 49 18 38 -3 -5 -10 -16 -54 -26 -98 -53 -253
-88 -424 -93 -457 -4 -29 -12 -40 -38 -52 -62 -30 -131 -38 -292 -33 -179 6
-220 12 -249 35 -21 17 -51 118 -73 242 -5 30 -19 82 -31 115 -12 33 -29 98
-39 145 -10 47 -20 92 -22 100 -3 11 4 14 26 13 17 -2 23 0 15 4 -8 3 -23 13
-33 21 -32 28 -41 2 -22 -69 10 -35 25 -102 36 -149 10 -47 27 -114 38 -150
10 -36 22 -81 26 -100 23 -128 49 -212 70 -226 58 -38 325 -58 461 -33 61 10
119 33 129 49 3 5 16 60 29 122 13 62 31 145 40 183 38 158 69 313 73 360 l5
50 -23 -22 c-35 -31 -107 -51 -251 -68 -136 -16 -239 -19 -337 -9 -116 13 -60
22 162 27 185 4 233 8 287 25 36 11 77 23 93 26 43 10 67 40 67 85 0 57 -35
80 -160 107 -80 17 -369 26 -465 14z m-70 -260 c4 -6 -7 -10 -24 -10 -17 0
-31 5 -31 10 0 6 11 10 24 10 14 0 28 -4 31 -10z"></path>
<path d="M6124 2996 c-3 -7 -4 -33 -2 -57 3 -44 3 -44 47 -49 41 -5 46 -8 53
-37 9 -35 16 -20 -161 -356 -28 -54 -51 -102 -51 -107 0 -5 8 -9 18 -10 37 -3
95 -1 106 3 15 6 150 267 142 275 -3 3 -7 3 -9 1 -9 -10 -84 -150 -108 -201
-26 -52 -31 -57 -69 -63 -51 -9 -64 2 -45 35 26 46 114 214 141 270 15 30 36
68 47 83 17 25 18 34 8 67 -14 47 -29 60 -67 57 -28 -2 -29 0 -29 38 l0 40 58
9 c70 11 75 8 106 -84 13 -36 33 -87 46 -115 12 -27 28 -67 34 -87 10 -31 31
-61 31 -45 0 13 -36 112 -61 165 -16 35 -29 65 -29 67 0 2 -9 29 -21 60 l-20
55 -80 0 c-59 0 -81 -4 -85 -14z"></path>
<path d="M3873 2763 c-9 -3 -13 -35 -13 -109 0 -101 1 -104 23 -105 107 -5
162 -3 174 6 21 15 26 202 5 210 -17 6 -172 5 -189 -2z m185 -105 l-3 -93 -90
0 -90 0 -1 85 c0 47 1 88 3 93 2 4 45 7 94 7 l90 0 -3 -92z"></path>
<path d="M6280 2691 c0 -6 4 -19 9 -29 15 -28 41 -90 41 -97 0 -4 14 -37 31
-73 18 -37 36 -77 42 -89 13 -29 26 -29 106 3 93 37 96 40 70 98 -22 50 -30
53 -81 31 -14 -6 -23 4 -44 54 -15 34 -31 61 -35 61 -12 0 -13 1 22 -75 31
-69 33 -70 81 -50 13 5 22 -2 37 -25 11 -18 17 -38 15 -44 -5 -12 -97 -47
-132 -49 -19 -2 -27 6 -42 43 -66 168 -101 245 -110 248 -5 2 -10 -1 -10 -7z"></path>
<path d="M5505 2661 c-12 -20 6 -31 46 -31 33 0 40 3 37 18 -4 20 -72 30 -83
13z"></path>
<path d="M5627 2664 c-4 -4 -7 -14 -7 -21 0 -10 11 -13 43 -11 29 2 42 8 42
18 0 16 -64 27 -78 14z"></path>
<path d="M4425 2650 c-12 -19 10 -32 46 -28 48 4 46 32 -3 36 -20 2 -39 -2
-43 -8z"></path>
<path d="M4540 2651 c-24 -16 2 -33 46 -29 27 2 39 8 39 18 0 18 -62 25 -85
11z"></path>
<path d="M4656 2652 c-10 -17 21 -33 56 -30 50 5 44 32 -9 36 -22 2 -44 -1
-47 -6z"></path>
<path d="M4780 2645 c0 -11 12 -15 45 -15 33 0 45 4 45 15 0 11 -12 15 -45 15
-33 0 -45 -4 -45 -15z"></path>
<path d="M4897 2654 c-14 -14 6 -24 49 -24 32 0 44 4 42 13 -5 13 -79 22 -91
11z"></path>
<path d="M5020 2645 c0 -11 12 -15 45 -15 33 0 45 4 45 15 0 11 -12 15 -45 15
-33 0 -45 -4 -45 -15z"></path>
<path d="M5140 2645 c0 -11 12 -15 45 -15 33 0 45 4 45 15 0 11 -12 15 -45 15
-33 0 -45 -4 -45 -15z"></path>
<path d="M5255 2650 c-3 -6 0 -13 8 -16 24 -9 80 0 85 14 5 15 -84 17 -93 2z"></path>
<path d="M5380 2645 c0 -11 12 -15 45 -15 33 0 45 4 45 15 0 11 -12 15 -45 15
-33 0 -45 -4 -45 -15z"></path>
<path d="M3796 2492 c-65 -8 -104 -62 -92 -127 12 -64 101 -107 148 -71 15 11
9 12 -37 8 -52 -4 -54 -3 -74 29 -30 49 -27 85 9 121 27 26 36 30 68 25 69
-11 97 -70 67 -142 -8 -18 -7 -19 8 -6 22 17 23 93 1 126 -18 27 -57 42 -98
37z"></path>
<path d="M4099 2453 c-7 -16 -28 -54 -46 -85 -18 -31 -33 -61 -33 -67 0 -15
196 -15 205 0 4 5 -4 27 -17 47 -13 20 -35 58 -48 85 -29 54 -41 58 -61 20z
m44 -20 c4 -10 18 -37 32 -61 14 -23 25 -47 25 -52 0 -6 -35 -10 -80 -10 -78
0 -93 6 -67 28 7 6 24 34 37 62 24 51 43 63 53 33z"></path>
<path d="M6732 2388 c2 -24 8 -43 13 -43 6 0 11 19 13 43 3 33 0 42 -13 42
-13 0 -16 -9 -13 -42z"></path>
<path d="M1611 2313 c-39 -47 -41 -73 -5 -73 17 0 28 -6 31 -20 3 -11 13 -20
23 -20 22 0 29 32 22 100 -6 63 -27 66 -71 13z m25 -40 c-10 -10 -19 5 -10 18
6 11 8 11 12 0 2 -7 1 -15 -2 -18z"></path>
<path d="M6735 2308 c-9 -23 -2 -83 10 -83 14 0 19 75 6 88 -7 7 -12 5 -16 -5z"></path>
<path d="M6732 2148 c2 -24 8 -43 13 -43 6 0 11 19 13 43 3 33 0 42 -13 42
-13 0 -16 -9 -13 -42z"></path>
<path d="M6601 2059 c-21 -28 -22 -33 -7 -41 10 -6 16 -22 16 -47 0 -42 20
-67 46 -57 15 6 15 8 1 24 -24 27 -33 72 -14 72 24 0 32 22 14 35 -10 7 -17
20 -17 29 0 25 -14 19 -39 -15z"></path>
<path d="M4187 2064 c-3 -3 -3 -19 0 -34 5 -26 3 -29 -28 -32 -29 -2 -36 -8
-45 -37 l-11 -34 -7 35 c-8 44 -26 60 -63 56 -25 -3 -28 -6 -25 -36 1 -21 -2
-31 -8 -27 -5 3 -10 13 -10 21 0 8 -12 20 -26 26 -24 11 -29 9 -50 -15 -13
-16 -24 -35 -24 -43 0 -8 -4 -14 -10 -14 -6 0 -10 28 -10 65 0 58 -2 65 -20
65 -21 0 -27 -15 -10 -25 6 -3 10 -28 10 -55 0 -27 -4 -52 -10 -55 -16 -10
-11 -22 12 -28 12 -4 28 -1 35 5 10 8 17 8 25 0 18 -18 46 -14 68 8 17 17 21
18 26 5 7 -18 89 -21 99 -5 4 7 11 7 18 2 21 -17 88 -22 93 -8 4 10 14 11 44
3 29 -8 42 -8 54 2 30 25 13 71 -26 71 -10 0 -18 7 -18 16 0 12 7 14 30 9 25
-6 30 -4 30 13 0 16 -7 19 -36 18 -61 -2 -74 -55 -19 -76 14 -5 25 -14 25 -20
0 -15 -36 -12 -50 5 -7 8 -19 15 -27 15 -10 0 -13 13 -11 51 3 48 -8 70 -25
53z m-137 -74 c0 -5 -7 -10 -16 -10 -8 0 -12 5 -9 10 3 6 10 10 16 10 5 0 9
-4 9 -10z m-85 -40 c0 -16 -6 -26 -18 -28 -19 -4 -32 20 -23 44 9 25 41 13 41
-16z m213 8 c-2 -15 -11 -24 -25 -26 -25 -4 -31 16 -11 36 20 20 40 14 36 -10z
m-108 -19 c0 -5 -9 -9 -20 -9 -19 0 -26 11 -14 23 8 8 34 -3 34 -14z"></path>
<path d="M6732 2028 c4 -59 28 -63 28 -4 0 35 -4 46 -16 46 -12 0 -14 -9 -12
-42z"></path>
<path d="M5938 2039 c-35 -20 -31 -106 6 -131 17 -12 81 -9 93 3 8 8 13 8 17
0 12 -18 55 -12 68 9 15 24 28 26 28 4 0 -9 7 -14 18 -12 12 2 16 11 14 29 -3
29 24 61 33 38 3 -8 4 -27 2 -44 -2 -24 2 -30 18 -30 21 0 22 6 11 68 -6 36
-10 40 -44 43 -15 1 -34 4 -42 5 -11 3 -14 -4 -13 -31 2 -30 1 -32 -8 -15 -6
12 -19 27 -30 34 -17 10 -25 9 -45 -4 -13 -8 -24 -21 -24 -28 0 -18 -43 -57
-62 -57 -24 0 -40 26 -36 61 4 42 34 62 54 35 10 -15 17 -17 25 -9 7 7 9 19 6
27 -7 18 -62 21 -89 5z m167 -85 c0 -32 -21 -39 -38 -12 -8 12 -7 21 3 32 19
24 35 14 35 -20z"></path>
<path d="M3629 2033 c-4 -33 5 -110 13 -120 16 -20 54 -15 72 10 16 21 17 20
12 -30 -5 -48 -3 -53 14 -53 16 0 20 7 20 30 0 23 5 30 19 30 20 0 51 35 51
57 0 22 -39 53 -67 53 -14 0 -34 7 -44 16 -26 23 -39 10 -26 -25 8 -22 8 -36
-1 -56 -20 -43 -37 -25 -36 39 1 41 -2 56 -12 56 -8 0 -14 -3 -15 -7z m161
-63 c11 -7 12 -14 4 -27 -15 -24 -33 -28 -40 -9 -7 18 1 46 13 46 4 0 15 -5
23 -10z"></path>
<path d="M6257 2022 c-9 -13 44 -112 60 -112 7 0 18 12 24 28 21 57 22 58 29
26 11 -49 16 -52 90 -51 l70 1 -7 39 c-6 37 -5 38 23 35 47 -5 37 25 -11 33
-22 4 -43 5 -48 2 -4 -2 -4 -23 0 -45 5 -36 4 -41 -11 -35 -9 4 -25 1 -36 -5
-14 -9 -22 -9 -34 1 -22 19 -10 31 30 31 38 0 41 6 18 38 -16 23 -48 29 -59
12 -5 -8 -11 -7 -21 0 -21 19 -38 6 -40 -29 -1 -18 -5 -35 -8 -38 -11 -12 -30
16 -31 44 0 27 -27 44 -38 25z"></path>
<path d="M6734 1946 c-8 -22 0 -81 11 -81 6 0 11 21 13 48 3 45 -12 65 -24 33z"></path>
<path d="M6732 1788 c2 -30 7 -43 18 -43 24 0 21 79 -3 83 -16 3 -18 -2 -15
-40z"></path>
<path d="M6295 1810 c-4 -7 -2 -17 4 -23 17 -17 14 -107 -3 -107 -17 0 -26 31
-26 88 0 39 -11 54 -25 33 -3 -5 -21 -7 -40 -4 -28 4 -36 2 -41 -13 -3 -11
-10 -27 -15 -37 -7 -13 -7 -23 1 -32 7 -9 9 -27 5 -45 -6 -27 -4 -30 19 -30
31 0 41 14 21 30 -20 17 -19 37 3 50 16 10 16 10 0 20 -20 12 -24 30 -8 30 6
0 20 -9 32 -20 17 -15 20 -26 14 -59 l-6 -39 61 -4 c34 -1 63 0 66 5 2 4 13 2
25 -4 36 -19 97 19 71 44 -3 4 -14 0 -24 -9 -20 -18 -53 -12 -47 9 3 6 19 13
36 15 18 2 32 9 32 16 0 18 -33 46 -53 46 -24 0 -50 -45 -44 -75 3 -16 0 -24
-7 -22 -6 2 -13 34 -16 72 -5 65 -19 91 -35 65z"></path>
<path d="M6737 1704 c-11 -11 -8 -72 4 -79 15 -10 17 -5 21 39 3 36 -9 55 -25
40z"></path>
<path d="M6734 1576 c-10 -26 0 -71 16 -71 10 0 16 13 18 43 2 33 0 42 -13 42
-8 0 -18 -6 -21 -14z"></path>
<path d="M6737 1463 c-9 -17 6 -83 19 -83 10 0 14 13 14 45 0 33 -4 45 -14 45
-8 0 -17 -3 -19 -7z"></path>
<path d="M6742 1304 c2 -27 8 -48 13 -46 15 3 12 85 -3 90 -10 3 -12 -8 -10
-44z"></path>
<path d="M3753 1277 c-40 -5 -73 -14 -73 -20 0 -5 14 -7 33 -3 17 4 123 9 235
13 111 3 202 9 202 14 0 12 -306 9 -397 -4z"></path>
<path d="M4194 1271 c3 -4 30 -11 61 -15 62 -7 153 -44 175 -71 13 -15 12 -19
-9 -36 -13 -11 -35 -22 -50 -25 -14 -3 -44 -13 -66 -22 -30 -11 -90 -16 -245
-20 -287 -6 -431 14 -505 71 -20 16 -20 16 1 37 11 12 38 27 60 35 36 12 59
35 35 35 -22 0 -106 -49 -118 -68 -15 -25 -1 -92 24 -110 60 -43 258 -67 503
-59 179 6 288 24 356 60 70 36 57 118 -24 153 -82 35 -212 59 -198 35z"></path>
<path d="M6740 1185 c0 -33 4 -45 15 -45 11 0 15 12 15 45 0 33 -4 45 -15 45
-11 0 -15 -12 -15 -45z"></path>
<path d="M6744 1096 c-9 -23 0 -79 14 -84 8 -2 12 11 12 47 0 48 -14 68 -26
37z"></path>
<path d="M3530 1063 c1 -10 8 -45 16 -78 9 -33 19 -78 24 -100 6 -36 98 -414
118 -490 12 -45 54 -63 193 -82 156 -21 310 -9 386 28 47 24 48 25 60 89 21
106 44 212 58 260 8 25 18 70 24 100 5 30 20 106 32 168 12 61 20 115 17 118
-3 3 -22 -6 -42 -20 -33 -22 -112 -46 -151 -46 -8 0 -15 -5 -15 -11 0 -16 87
-2 134 22 21 11 40 18 42 17 2 -2 -4 -33 -12 -68 -15 -67 -25 -119 -43 -225
-6 -33 -20 -103 -32 -155 -11 -52 -24 -113 -27 -135 -6 -33 -13 -43 -43 -57
-80 -38 -346 -48 -473 -18 -82 19 -108 63 -136 233 -5 33 -18 89 -29 125 -32
105 -53 191 -65 266 -6 38 -17 71 -24 74 -7 2 -12 -5 -12 -15z"></path>
<path d="M3580 1040 c8 -5 22 -9 30 -9 10 0 8 3 -5 9 -27 12 -43 12 -25 0z"></path>
<path d="M3640 1020 c0 -5 5 -10 10 -10 6 0 10 5 10 10 0 6 -4 10 -10 10 -5 0
-10 -4 -10 -10z"></path>
<path d="M3700 1011 c0 -9 61 -22 69 -15 7 6 -2 11 -36 17 -18 4 -33 3 -33 -2z"></path>
<path d="M3820 989 c0 -3 28 -9 63 -13 69 -7 327 3 327 13 0 4 -88 7 -195 6
-107 0 -195 -3 -195 -6z"></path>
<path d="M6740 946 c0 -46 8 -60 27 -48 17 10 4 92 -13 92 -10 0 -14 -14 -14
-44z"></path>
<path d="M3898 933 c-16 -4 -18 -18 -18 -101 0 -53 4 -103 8 -110 6 -9 35 -12
108 -10 l99 3 3 99 c1 55 -1 103 -6 108 -10 10 -167 19 -194 11z m180 -111 l3
-92 -91 0 -90 0 0 88 c0 49 3 92 7 96 5 4 44 6 88 4 l80 -3 3 -93z"></path>
<path d="M4481 845 c-17 -20 -31 -41 -31 -48 0 -7 16 -28 35 -47 27 -26 38
-31 47 -22 8 8 8 15 -2 27 -11 13 -10 18 5 29 18 13 18 14 -4 26 -17 9 -20 15
-12 23 13 13 15 47 2 47 -5 0 -23 -16 -40 -35z"></path>
<path d="M6745 858 c-8 -25 -10 -63 -2 -65 29 -10 38 -2 35 34 -3 36 -24 57
-33 31z"></path>
<path d="M5940 811 c-50 -8 -47 -35 4 -39 45 -4 68 11 46 31 -10 8 -28 11 -50
8z"></path>
<path d="M6038 809 c-32 -18 -19 -29 32 -29 51 0 60 6 38 28 -15 15 -47 15
-70 1z"></path>
<path d="M6163 813 c-23 -4 -31 -27 -14 -38 16 -9 91 7 91 20 0 11 -35 27 -50
24 -3 -1 -15 -4 -27 -6z"></path>
<path d="M6270 805 c-19 -22 0 -37 41 -33 26 2 34 8 34 23 0 26 -55 34 -75 10z"></path>
<path d="M6385 811 c-12 -20 6 -31 46 -31 33 0 40 3 37 18 -4 20 -72 30 -83
13z"></path>
<path d="M6507 814 c-4 -4 -7 -14 -7 -21 0 -10 11 -13 43 -11 29 2 42 8 42 18
0 16 -64 27 -78 14z"></path>
<path d="M6615 810 c-11 -19 6 -30 46 -30 32 0 39 3 39 20 0 17 -7 20 -39 20
-22 0 -43 -4 -46 -10z"></path>
<path d="M4575 800 c-3 -5 0 -13 8 -16 23 -8 82 0 82 11 0 14 -82 19 -90 5z"></path>
<path d="M4700 796 c0 -16 31 -24 68 -18 12 3 22 11 22 18 0 10 -13 14 -45 14
-32 0 -45 -4 -45 -14z"></path>
<path d="M4822 793 c2 -14 13 -18 43 -18 30 0 41 4 43 18 3 14 -4 17 -43 17
-39 0 -46 -3 -43 -17z"></path>
<path d="M4942 793 c2 -14 13 -18 43 -18 30 0 41 4 43 18 3 14 -4 17 -43 17
-39 0 -46 -3 -43 -17z"></path>
<path d="M5062 793 c2 -14 13 -18 43 -18 30 0 41 4 43 18 3 14 -4 17 -43 17
-39 0 -46 -3 -43 -17z"></path>
<path d="M5182 793 c2 -13 15 -19 46 -21 37 -3 42 -1 42 17 0 18 -6 21 -46 21
-38 0 -45 -3 -42 -17z"></path>
<path d="M5305 800 c-12 -19 10 -32 51 -28 27 2 39 8 39 18 0 19 -79 27 -90
10z"></path>
<path d="M5425 800 c-12 -19 10 -32 51 -28 27 2 39 8 39 18 0 19 -79 27 -90
10z"></path>
<path d="M5545 800 c-12 -19 10 -32 51 -28 27 2 39 8 39 18 0 19 -79 27 -90
10z"></path>
<path d="M5665 800 c-12 -19 10 -32 51 -28 27 2 39 8 39 18 0 19 -79 27 -90
10z"></path>
<path d="M5785 800 c-11 -18 5 -30 39 -30 33 0 62 20 49 33 -10 11 -81 8 -88
-3z"></path>
<path d="M3750 618 c-29 -40 -39 -78 -21 -78 5 0 12 16 15 35 8 43 39 65 89
65 81 0 115 -85 60 -150 -24 -29 -31 -32 -67 -27 -30 4 -48 14 -68 38 -24 29
-28 30 -28 13 0 -26 24 -48 71 -64 32 -11 42 -11 70 3 73 34 88 121 33 179
-23 23 -36 28 -76 28 -45 0 -50 -3 -78 -42z"></path>
<path d="M4090 555 c-29 -53 -50 -98 -48 -101 7 -6 198 -7 205 -1 7 7 -75 173
-93 188 -9 7 -26 -16 -64 -86z m91 8 c13 -27 29 -56 37 -65 8 -9 11 -22 7 -27
-7 -13 -141 -15 -149 -2 -3 5 6 31 20 57 14 27 30 57 35 67 15 27 26 21 50
-30z"></path>
<path d="M4200 218 c0 -6 -8 -20 -17 -30 -15 -17 -15 -19 0 -31 10 -7 17 -30
19 -57 l3 -45 78 -1 c68 -1 79 1 88 18 15 27 4 47 -31 59 -42 15 -38 31 6 23
31 -6 35 -4 32 11 -2 13 -13 19 -38 20 -68 3 -85 -46 -24 -71 19 -8 34 -20 32
-26 -7 -20 -26 -20 -47 1 -27 27 -37 26 -45 -1 -7 -29 -21 -15 -31 30 -6 28
-4 32 14 32 24 0 28 25 6 34 -8 3 -15 15 -15 26 0 11 -7 20 -15 20 -8 0 -15
-5 -15 -12z"></path>
<path d="M4115 198 c2 -13 6 -43 7 -68 2 -36 0 -45 -14 -48 -15 -3 -18 4 -18
37 0 54 -23 54 -39 0 -14 -47 -28 -42 -33 11 -2 26 -8 35 -21 35 -10 0 -21 5
-25 11 -4 5 -25 10 -47 10 -38 -1 -40 -3 -40 -31 0 -23 5 -30 25 -35 14 -3 26
-14 28 -23 5 -24 -35 -22 -48 3 -9 17 -14 18 -33 7 -12 -6 -30 -18 -39 -25
-18 -15 -38 -8 -38 13 0 8 13 15 32 17 37 4 45 19 22 42 -24 24 -56 16 -73
-18 -12 -26 -12 -33 0 -55 14 -25 19 -26 102 -27 95 -1 114 8 103 50 -3 14
-16 26 -31 30 -38 10 -31 29 8 21 44 -10 47 -12 47 -44 0 -42 23 -55 107 -59
70 -3 75 -2 67 15 -4 10 -10 48 -12 86 -3 58 -6 67 -23 67 -15 0 -18 -5 -14
-22z"></path>
<path d="M3625 201 c-3 -5 0 -13 6 -16 6 -5 9 -31 7 -68 -3 -61 4 -75 31 -58
12 8 12 12 2 24 -7 10 -8 18 -2 21 5 4 19 -7 31 -24 12 -16 28 -30 36 -30 20
0 18 10 -8 37 -19 20 -20 27 -10 41 23 32 24 43 7 62 -19 21 -89 28 -100 11z
m83 -33 c4 -23 -36 -45 -44 -23 -9 23 4 47 23 43 10 -2 19 -11 21 -20z"></path>
</g>
</svg>