 <svg version="1.0" xmlns="http://www.w3.org/2000/svg" width="700.000000pt" height="370.000000pt" viewBox="0 0 700.000000 370.000000" preserveAspectRatio="xMidYMid meet">
<metadata>
Created by potrace 1.12, written by Peter Selinger 2001-2015
</metadata>
<g transform="translate(0.000000,370.000000) scale(0.100000,-0.100000)" fill="#000000" stroke="none">
<path d="M0 2972 c0 -23 18 -26 260 -47 416 -36 477 -44 630 -86 135 -37 220
-99 220 -160 0 -22 -13 -44 -47 -80 -53 -57 -99 -86 -193 -122 -36 -14 -119
-46 -185 -72 -156 -60 -236 -108 -313 -188 -224 -234 -92 -434 358 -541 227
-54 940 -120 2265 -211 121 -9 279 -20 350 -25 72 -6 218 -15 325 -21 107 -6
197 -12 200 -14 3 -2 75 -6 160 -10 85 -3 202 -11 260 -16 58 -5 179 -12 270
-15 153 -6 166 -8 182 -28 10 -11 18 -31 18 -43 0 -25 15 -39 25 -23 3 5 15
10 26 10 27 0 24 25 -6 38 -37 17 -31 34 13 31 59 -3 92 0 92 10 0 5 -10 12
-22 16 l-23 7 25 7 c17 5 26 15 28 33 3 26 1 27 -53 30 -30 2 -56 8 -56 13 -3
36 -49 47 -49 11 0 -47 -17 -50 -188 -38 -86 7 -242 17 -347 22 -305 17 -1299
80 -1640 104 -110 8 -267 19 -350 25 -82 6 -197 15 -255 21 -58 6 -163 15
-235 20 -277 21 -627 57 -815 85 -366 53 -600 167 -600 293 0 40 44 123 97
182 62 69 147 116 361 201 198 78 283 126 328 185 25 32 29 46 29 100 0 58 -3
66 -35 99 -89 91 -338 155 -710 180 -47 3 -123 10 -170 15 -216 23 -230 23
-230 2z"></path>
<path d="M5104 2589 c-12 -14 -19 -40 -22 -82 -3 -54 2 -81 42 -198 25 -75 46
-145 46 -154 0 -9 -22 -38 -49 -64 -53 -49 -53 -50 -70 -186 -8 -59 -18 -99
-31 -117 -48 -65 0 -198 71 -198 15 0 31 -4 34 -10 3 -5 32 -10 64 -10 44 0
62 -5 75 -18 19 -21 67 -138 59 -146 -3 -2 -17 -1 -31 4 -15 5 -61 11 -102 14
-61 5 -79 11 -100 31 -27 25 -50 33 -50 16 0 -6 5 -13 10 -16 6 -3 10 -11 10
-17 0 -7 -17 -9 -50 -5 -29 4 -50 2 -50 -3 0 -6 8 -10 18 -10 9 0 28 -9 42
-19 23 -18 23 -21 8 -38 -24 -27 -40 -71 -27 -79 6 -3 13 3 16 15 11 43 38 49
187 41 76 -4 141 -11 144 -16 4 -5 23 -34 44 -64 20 -30 57 -75 82 -100 49
-47 54 -61 31 -80 -40 -33 -3 -100 55 -100 15 0 35 -7 46 -15 10 -8 34 -15 51
-15 27 0 34 -5 39 -26 4 -14 2 -30 -5 -37 -6 -6 -11 -22 -11 -36 0 -13 -8 -33
-17 -43 -16 -18 -15 -20 5 -41 20 -20 30 -21 125 -19 56 2 118 7 138 12 69 19
105 90 94 185 -7 51 -5 56 22 84 17 17 45 32 64 34 19 3 65 10 102 17 l68 11
48 -35 c26 -20 61 -55 76 -78 15 -24 73 -87 129 -142 l101 -98 140 6 c165 8
186 18 142 64 -15 15 -27 32 -27 37 0 5 -19 27 -42 50 -24 23 -54 63 -68 90
-14 27 -38 71 -53 97 -27 46 -28 50 -16 102 6 30 15 59 18 64 4 7 33 7 81 2
41 -5 101 -9 133 -10 l57 0 0 34 c0 42 -6 44 -157 52 l-113 7 0 33 c0 18 -5
45 -11 61 -6 15 -20 64 -30 108 -11 44 -23 89 -28 100 -49 115 -68 144 -129
200 -172 159 -312 223 -502 230 -84 3 -194 25 -237 47 -16 8 -38 8 -80 0 -126
-24 -143 -24 -143 -2 0 11 13 46 29 78 42 84 71 198 78 310 8 128 -2 136 -69
61 -137 -153 -193 -230 -215 -291 -27 -81 -49 -84 -76 -13 -18 50 -54 154 -84
250 -23 72 -49 105 -82 105 -15 0 -36 -9 -47 -21z"></path>
</g>
</svg>